<?xml version="1.0" encoding="UTF-8"?>
<svg id="background" xmlns="http://www.w3.org/2000/svg" viewBox="0 0 2011.78 1713.33">
  <defs>
    <style>
      .cls-1 {
        opacity: .6;
      }

      .cls-1, .cls-2, .cls-3, .cls-4, .cls-5, .cls-6, .cls-7 {
        fill: #012e40;
      }

      .cls-1, .cls-2, .cls-3, .cls-4, .cls-6, .cls-7 {
        isolation: isolate;
      }

      .cls-8, .cls-7 {
        opacity: .5;
      }

      .cls-2 {
        opacity: .3;
      }

      .cls-3 {
        opacity: .2;
      }

      .cls-9 {
        fill: none;
        stroke: #012e40;
        stroke-miterlimit: 10;
      }

      .cls-4 {
        opacity: .4;
      }

      .cls-6 {
        opacity: .7;
      }

      .cls-10 {
        opacity: .25;
      }
    </style>
  </defs>
  <g id="Nodes_3" data-name="Nodes 3" class="cls-10">
    <g id="Links">
      <polygon class="cls-9" points="453.1 845.87 477.76 664.79 687.59 765.31 808.85 852.75 453.1 845.87"/>
      <polygon class="cls-9" points="687.59 765.31 605.94 519.11 613.06 370.89 803.07 564.32 687.59 765.31"/>
      <polygon class="cls-9" points="834.06 693.83 803.07 564.32 871.75 476.35 958.12 618.37 834.06 693.83"/>
      <polygon class="cls-9" points="1025.78 983.98 985.73 852.64 1044.5 760.38 1192.12 872.11 1025.78 983.98"/>
      <polygon class="cls-9" points="871.75 476.35 828.28 348.66 970.29 262.28 950.45 377.41 871.75 476.35"/>
      <polygon class="cls-9" points="1044.5 760.38 958.12 618.37 1036.82 519.42 1052 658.55 1044.5 760.38"/>
      <polygon class="cls-9" points="1036.82 519.42 950.45 377.41 1230.15 322.17 1166.98 430.43 1036.82 519.42"/>
      <polygon class="cls-9" points="1272.89 816.02 1052 658.55 1124.23 544.33 1339.73 714.46 1272.89 816.02"/>
      <polygon class="cls-9" points="1230.15 322.17 1069.4 161.59 1183.63 15.05 1372.17 235.8 1230.15 322.17"/>
      <polygon class="cls-9" points="1124.23 544.33 1166.98 430.43 1384.17 359.24 1377.02 478.47 1124.23 544.33"/>
      <polygon class="cls-9" points="1554.75 884.8 1339.73 714.46 1463.4 620.49 1643.3 785.29 1554.75 884.8"/>
      <polygon class="cls-9" points="1384.17 359.24 1372.17 235.8 1439.81 130.85 1526.18 272.87 1384.17 359.24"/>
      <polygon class="cls-9" points="1463.4 620.49 1377.02 478.47 1562.1 491.84 1648.47 633.86 1463.4 620.49"/>
    </g>
    <g id="Cercles">
      <path class="cls-7" d="M978.11,275.12c-7.1,4.32-16.35,2.07-20.67-5.03-4.32-7.1-2.07-16.35,5.03-20.67,7.1-4.31,16.35-2.06,20.67,5.04,4.32,7.1,2.07,16.35-5.03,20.67h0Z"/>
      <path class="cls-4" d="M958.25,390.26c-7.1,4.31-16.35,2.06-20.67-5.04-4.31-7.1-2.06-16.35,5.04-20.67,7.1-4.31,16.35-2.06,20.67,5.04,4.32,7.1,2.07,16.35-5.03,20.67h0Z"/>
      <path class="cls-7" d="M1023.97,527.24c-4.32-7.1-2.07-16.35,5.03-20.67,7.1-4.31,16.35-2.06,20.67,5.04,4.32,7.1,2.07,16.35-5.03,20.67-7.1,4.31-16.35,2.06-20.67-5.04Z"/>
      <path class="cls-7" d="M1039.15,666.36c-4.32-7.1-2.07-16.35,5.03-20.67,7.1-4.31,16.35-2.06,20.67,5.04,4.32,7.1,2.07,16.35-5.03,20.67-7.1,4.31-16.35,2.06-20.67-5.04Z"/>
      <path class="cls-1" d="M1280.71,828.86c-7.1,4.32-16.35,2.07-20.67-5.03s-2.07-16.35,5.03-20.67c7.1-4.31,16.35-2.06,20.67,5.04s2.07,16.35-5.03,20.67h0Z"/>
      <path class="cls-2" d="M1056.55,169.41c-4.32-7.1-2.07-16.35,5.03-20.67,7.1-4.32,16.35-2.07,20.67,5.03,4.32,7.1,2.07,16.35-5.03,20.67-7.1,4.32-16.35,2.07-20.67-5.03Z"/>
      <path class="cls-7" d="M1237.96,335.01c-7.1,4.32-16.35,2.07-20.67-5.03-4.31-7.1-2.06-16.35,5.04-20.67,7.1-4.31,16.35-2.06,20.67,5.04,4.32,7.1,2.07,16.35-5.03,20.67h-.01Z"/>
      <path class="cls-1" d="M1174.79,443.28c-7.1,4.31-16.35,2.06-20.67-5.04-4.31-7.1-2.06-16.35,5.04-20.67,7.1-4.31,16.35-2.06,20.67,5.04,4.32,7.1,2.07,16.35-5.03,20.67h-.01Z"/>
      <path class="cls-5" d="M1132.04,557.17c-7.1,4.32-16.35,2.07-20.67-5.03-4.31-7.1-2.06-16.35,5.04-20.67,7.1-4.31,16.35-2.06,20.67,5.04,4.32,7.1,2.07,16.35-5.03,20.67h-.01Z"/>
      <path class="cls-6" d="M1326.88,722.27c-4.31-7.1-2.06-16.35,5.04-20.67,7.1-4.31,16.35-2.06,20.67,5.04,4.31,7.1,2.06,16.35-5.04,20.67-7.1,4.31-16.35,2.06-20.67-5.04Z"/>
      <path class="cls-7" d="M1562.58,897.66c-7.1,4.31-16.35,2.06-20.67-5.04s-2.07-16.35,5.03-20.67c7.1-4.31,16.35-2.06,20.67,5.04,4.31,7.1,2.06,16.35-5.04,20.67h.01Z"/>
      <path class="cls-2" d="M1191.45,27.9c-7.1,4.31-16.35,2.06-20.67-5.04-4.32-7.1-2.07-16.35,5.03-20.67,7.1-4.31,16.35-2.06,20.67,5.04,4.31,7.1,2.06,16.35-5.04,20.67h.01Z"/>
      <path class="cls-7" d="M1379.98,248.66c-7.1,4.31-16.35,2.06-20.67-5.04-4.31-7.1-2.06-16.35,5.04-20.67,7.1-4.32,16.35-2.07,20.67,5.03,4.31,7.1,2.06,16.35-5.04,20.67h0Z"/>
      <path class="cls-4" d="M1392,372.09c-7.1,4.32-16.35,2.07-20.67-5.03-4.32-7.1-2.07-16.35,5.03-20.67,7.1-4.32,16.35-2.07,20.67,5.03,4.31,7.1,2.06,16.35-5.04,20.67h.01Z"/>
      <path class="cls-7" d="M1364.16,486.28c-4.32-7.1-2.07-16.35,5.03-20.67,7.1-4.31,16.35-2.06,20.67,5.04,4.32,7.1,2.07,16.35-5.03,20.67-7.1,4.31-16.36,2.06-20.67-5.04Z"/>
      <path class="cls-7" d="M1471.22,633.34c-7.1,4.31-16.35,2.06-20.67-5.04-4.32-7.1-2.07-16.35,5.03-20.67,7.1-4.31,16.35-2.06,20.67,5.04,4.31,7.1,2.06,16.35-5.04,20.67h.01Z"/>
      <path class="cls-4" d="M1630.44,793.11c-4.32-7.1-2.07-16.35,5.03-20.67,7.1-4.32,16.35-2.07,20.67,5.03s2.07,16.35-5.03,20.67c-7.1,4.32-16.35,2.07-20.67-5.03Z"/>
      <path class="cls-3" d="M1447.64,143.7c-7.1,4.32-16.35,2.07-20.67-5.03-4.32-7.1-2.07-16.35,5.03-20.67,7.1-4.32,16.35-2.07,20.67,5.03,4.31,7.1,2.06,16.35-5.04,20.67h.01Z"/>
      <path class="cls-2" d="M1534.01,285.73c-7.1,4.31-16.35,2.06-20.67-5.04-4.32-7.1-2.07-16.35,5.03-20.67,7.1-4.32,16.35-2.07,20.67,5.03,4.31,7.1,2.06,16.35-5.04,20.67h.01Z"/>
      <path class="cls-7" d="M1569.9,504.69c-7.1,4.31-16.35,2.06-20.67-5.04-4.31-7.1-2.06-16.35,5.04-20.67,7.1-4.31,16.35-2.06,20.67,5.04,4.32,7.1,2.07,16.35-5.03,20.67h-.01Z"/>
      <path class="cls-2" d="M1656.3,646.7c-7.1,4.32-16.35,2.07-20.67-5.03-4.32-7.1-2.07-16.35,5.03-20.67,7.1-4.31,16.35-2.06,20.67,5.04,4.31,7.1,2.06,16.35-5.04,20.67h.01Z"/>
      <path class="cls-2" d="M485.59,677.64c-7.1,4.31-16.35,2.06-20.67-5.04-4.32-7.1-2.07-16.35,5.03-20.67,7.1-4.31,16.35-2.06,20.67,5.04,4.31,7.1,2.06,16.35-5.04,20.67h.01Z"/>
      <path class="cls-2" d="M613.76,531.97c-7.1,4.31-16.35,2.06-20.67-5.04-4.32-7.1-2.07-16.35,5.03-20.67,7.1-4.31,16.35-2.06,20.67,5.04,4.31,7.1,2.06,16.35-5.04,20.67h0Z"/>
      <path class="cls-1" d="M674.73,773.12c-4.31-7.1-2.06-16.35,5.04-20.67,7.1-4.31,16.35-2.06,20.67,5.04,4.31,7.1,2.06,16.35-5.04,20.67-7.1,4.31-16.35,2.06-20.67-5.04Z"/>
      <path class="cls-4" d="M816.66,865.6c-7.1,4.31-16.35,2.06-20.67-5.04-4.31-7.1-2.06-16.35,5.04-20.67,7.1-4.31,16.35-2.06,20.67,5.04,4.32,7.1,2.07,16.35-5.03,20.67h0Z"/>
      <path class="cls-5" d="M600.21,378.7c-4.32-7.1-2.07-16.35,5.03-20.67,7.1-4.31,16.36-2.06,20.67,5.04,4.32,7.1,2.07,16.35-5.03,20.67-7.1,4.31-16.35,2.06-20.67-5.04Z"/>
      <path class="cls-1" d="M790.21,572.14c-4.31-7.1-2.06-16.35,5.04-20.67,7.1-4.31,16.35-2.06,20.67,5.04,4.31,7.1,2.06,16.35-5.04,20.67-7.1,4.31-16.35,2.06-20.67-5.04Z"/>
      <path class="cls-7" d="M841.87,706.68c-7.1,4.31-16.35,2.06-20.67-5.04-4.32-7.1-2.07-16.35,5.03-20.67,7.1-4.31,16.35-2.06,20.67,5.04,4.32,7.1,2.07,16.35-5.03,20.67h0Z"/>
      <path class="cls-1" d="M972.88,860.45c-4.32-7.1-2.07-16.35,5.03-20.67,7.1-4.31,16.35-2.06,20.67,5.04,4.32,7.1,2.07,16.35-5.03,20.67-7.1,4.31-16.35,2.06-20.67-5.04Z"/>
      <path class="cls-7" d="M1033.61,996.83c-7.1,4.31-16.35,2.06-20.67-5.04-4.32-7.1-2.07-16.35,5.03-20.67,7.1-4.31,16.35-2.06,20.67,5.04,4.31,7.1,2.06,16.35-5.04,20.67h.01Z"/>
      <path class="cls-4" d="M836.1,361.5c-7.1,4.32-16.35,2.07-20.67-5.03-4.32-7.1-2.07-16.35,5.03-20.67,7.1-4.31,16.35-2.06,20.67,5.04,4.32,7.1,2.07,16.35-5.03,20.67h0Z"/>
      <path class="cls-7" d="M858.9,484.17c-4.32-7.1-2.07-16.35,5.03-20.67,7.1-4.31,16.35-2.06,20.67,5.04,4.32,7.1,2.07,16.35-5.03,20.67-7.1,4.31-16.35,2.06-20.67-5.04Z"/>
      <path class="cls-4" d="M1052.33,773.24c-7.1,4.31-16.35,2.06-20.67-5.04s-2.07-16.35,5.03-20.67c7.1-4.31,16.35-2.06,20.67,5.04,4.31,7.1,2.06,16.35-5.04,20.67h.01Z"/>
      <path class="cls-5" d="M1199.94,884.95c-7.1,4.32-16.35,2.07-20.67-5.03s-2.07-16.35,5.03-20.67c7.1-4.31,16.35-2.06,20.67,5.04s2.07,16.35-5.03,20.67h0Z"/>
    </g>
    <g id="Links-2">
      <line class="cls-9" x1="958.12" y1="618.37" x2="803.07" y2="564.32"/>
      <line class="cls-9" x1="1372.17" y1="235.8" x2="1069.4" y2="161.59"/>
      <line class="cls-9" x1="1166.98" y1="430.43" x2="1372.17" y2="235.8"/>
      <line class="cls-9" x1="1643.3" y1="785.29" x2="1648.47" y2="633.86"/>
      <line class="cls-9" x1="1339.22" y1="713.62" x2="1643.3" y2="785.29"/>
      <line class="cls-9" x1="1192.12" y1="872.11" x2="1052" y2="658.55"/>
      <line class="cls-9" x1="985.73" y1="852.64" x2="1192.12" y2="872.11"/>
      <line class="cls-9" x1="803.07" y1="564.32" x2="828.28" y2="348.66"/>
      <line class="cls-9" x1="1036.82" y1="519.42" x2="871.75" y2="476.35"/>
      <line class="cls-9" x1="1273.8" y1="814.64" x2="1124.23" y2="544.33"/>
      <line class="cls-9" x1="687.59" y1="765.31" x2="613.06" y2="370.89"/>
      <line class="cls-9" x1="1371.74" y1="478.46" x2="1526.18" y2="272.87"/>
      <line class="cls-9" x1="1463.4" y1="620.49" x2="1124.23" y2="544.33"/>
      <line class="cls-9" x1="1371.74" y1="478.46" x2="1166.98" y2="430.43"/>
      <line class="cls-9" x1="1230.15" y1="322.17" x2="970.29" y2="262.28"/>
      <line class="cls-9" x1="834.06" y1="693.83" x2="687.59" y2="765.31"/>
      <line class="cls-9" x1="1027.45" y1="982.86" x2="605.94" y2="519.11"/>
      <line class="cls-9" x1="1554.22" y1="883.94" x2="970.29" y2="262.28"/>
      <line class="cls-9" x1="1339.22" y1="713.62" x2="1183.63" y2="15.05"/>
    </g>
  </g>
  <g id="Nodes_2" data-name="Nodes 2">
    <g id="Links-3">
      <polygon class="cls-9" points="198.57 409.52 372.8 354.38 371.67 587.03 344.49 734.04 198.57 409.52"/>
      <polygon class="cls-9" points="371.67 587.03 559.3 407.93 696.33 350.98 602.74 605.46 371.67 587.03"/>
      <polygon class="cls-9" points="262.91 806.85 344.49 734.04 498.93 688.86 420.24 893.88 262.91 806.85"/>
      <polygon class="cls-9" points="1.72 1076.01 144.08 959.9 318.64 986.26 196.92 1047.3 1.72 1076.01"/>
      <polygon class="cls-9" points="498.93 688.86 602.74 605.46 711.63 629.92 620.2 768.74 498.93 688.86"/>
      <polygon class="cls-9" points="318.64 986.26 420.24 893.88 528.76 907.55 490.9 1088.78 318.64 986.26"/>
      <polygon class="cls-9" points="146.45 1270.86 196.92 1047.3 324.67 1199.9 222.31 1391.45 146.45 1270.86"/>
      <polygon class="cls-9" points="711.63 629.92 808.47 536.02 947.28 627.45 834.73 658.75 711.63 629.92"/>
      <polygon class="cls-9" points="528.76 907.55 620.2 768.74 743.3 797.56 624.03 870.78 528.76 907.55"/>
      <polygon class="cls-9" points="324.67 1199.9 490.9 1088.78 576.14 1137.8 420.9 1302.87 324.67 1199.9"/>
      <polygon class="cls-9" points="743.3 797.56 834.73 658.75 1004.28 887.96 879.4 877.16 743.3 797.56"/>
      <polygon class="cls-9" points="576.14 1137.8 624.03 870.78 758.17 887.22 696.54 1154.79 576.14 1137.8"/>
      <polygon class="cls-9" points="307.55 1440.47 420.9 1302.87 634.51 1421.99 438.57 1399.78 307.55 1440.47"/>
      <polygon class="cls-9" points="1004.28 887.96 1080.69 673.97 1262 714.56 1143.09 979.39 1004.28 887.96"/>
      <polygon class="cls-9" points="758.17 887.22 879.4 877.16 1036.64 1043.04 925.8 1087.56 758.17 887.22"/>
      <polygon class="cls-9" points="634.51 1421.99 696.54 1154.79 834.37 1226.38 762.34 1459.47 634.51 1421.99"/>
      <polygon class="cls-9" points="1036.64 1043.04 1143.09 979.39 1266.88 995.65 1175.45 1134.47 1036.64 1043.04"/>
      <polygon class="cls-9" points="834.37 1226.38 925.8 1087.56 992.87 1260.58 901.44 1399.39 834.37 1226.38"/>
    </g>
    <g id="Cercles-2">
      <path class="cls-7" d="M939,640.02c-6.94-4.57-8.86-13.9-4.29-20.84,4.57-6.94,13.9-8.86,20.84-4.29s8.86,13.9,4.29,20.84c-4.56,6.94-13.89,8.86-20.83,4.29h-.01Z"/>
      <path class="cls-4" d="M822.16,650.47c4.57-6.94,13.9-8.86,20.84-4.29s8.86,13.9,4.29,20.84c-4.57,6.94-13.9,8.86-20.84,4.29s-8.86-13.9-4.29-20.84Z"/>
      <path class="cls-7" d="M730.73,789.28c4.57-6.94,13.9-8.86,20.84-4.29s8.86,13.9,4.29,20.84-13.9,8.86-20.84,4.29-8.86-13.9-4.29-20.84Z"/>
      <path class="cls-7" d="M611.46,862.5c4.57-6.94,13.9-8.86,20.84-4.29s8.86,13.9,4.29,20.84-13.9,8.86-20.84,4.29-8.86-13.9-4.29-20.84Z"/>
      <path class="cls-1" d="M563.58,1129.52c4.57-6.94,13.9-8.86,20.84-4.29s8.86,13.9,4.29,20.84-13.9,8.86-20.84,4.29-8.86-13.9-4.29-20.84Z"/>
      <path class="cls-7" d="M412.61,1315.43c-6.94-4.57-8.86-13.9-4.29-20.84s13.9-8.86,20.84-4.29,8.86,13.9,4.29,20.84c-4.56,6.94-13.89,8.86-20.83,4.29h-.01Z"/>
      <path class="cls-2" d="M294.99,1432.19c4.57-6.94,13.9-8.86,20.84-4.29s8.86,13.9,4.29,20.84-13.9,8.86-20.84,4.29-8.86-13.9-4.29-20.84Z"/>
      <path class="cls-2" d="M1068.13,665.7c4.57-6.94,13.9-8.86,20.84-4.29,6.94,4.57,8.86,13.9,4.29,20.84-4.57,6.94-13.9,8.86-20.84,4.29-6.94-4.57-8.86-13.9-4.29-20.84Z"/>
      <path class="cls-7" d="M991.71,879.68c4.57-6.94,13.9-8.86,20.84-4.29s8.86,13.9,4.29,20.84-13.9,8.86-20.84,4.29-8.86-13.9-4.29-20.84Z"/>
      <path class="cls-1" d="M871.13,889.73c-6.94-4.57-8.86-13.9-4.29-20.84s13.9-8.86,20.84-4.29c6.94,4.56,8.86,13.89,4.29,20.83s-13.9,8.86-20.84,4.29h0Z"/>
      <path class="cls-5" d="M745.6,878.95c4.57-6.94,13.9-8.86,20.84-4.29s8.86,13.9,4.29,20.84-13.9,8.86-20.84,4.29-8.86-13.9-4.29-20.84Z"/>
      <path class="cls-6" d="M683.97,1146.51c4.57-6.94,13.9-8.86,20.84-4.29s8.86,13.9,4.29,20.84-13.9,8.86-20.84,4.29-8.86-13.9-4.29-20.84Z"/>
      <path class="cls-7" d="M621.95,1413.72c4.57-6.94,13.9-8.86,20.84-4.29s8.86,13.9,4.29,20.84-13.9,8.86-20.84,4.29-8.86-13.9-4.29-20.84Z"/>
      <path class="cls-3" d="M426.01,1391.5c4.57-6.94,13.9-8.86,20.84-4.29s8.86,13.9,4.29,20.84-13.9,8.86-20.84,4.29-8.86-13.9-4.29-20.84Z"/>
      <path class="cls-2" d="M1253.74,727.12c-6.94-4.57-8.86-13.9-4.29-20.84,4.56-6.94,13.89-8.86,20.83-4.29,6.94,4.57,8.86,13.9,4.29,20.84s-13.9,8.86-20.84,4.29h.01Z"/>
      <path class="cls-7" d="M1130.53,971.11c4.57-6.94,13.9-8.86,20.84-4.29,6.94,4.57,8.86,13.9,4.29,20.84s-13.9,8.86-20.84,4.29c-6.94-4.57-8.86-13.9-4.29-20.84Z"/>
      <path class="cls-4" d="M1028.36,1055.59c-6.94-4.56-8.86-13.89-4.29-20.83,4.57-6.94,13.9-8.86,20.84-4.29,6.94,4.57,8.86,13.9,4.29,20.84s-13.9,8.86-20.84,4.29h0Z"/>
      <path class="cls-7" d="M917.53,1100.11c-6.94-4.57-8.86-13.89-4.29-20.83s13.9-8.86,20.84-4.29,8.86,13.9,4.29,20.84-13.9,8.86-20.84,4.29h0Z"/>
      <path class="cls-7" d="M821.8,1218.1c4.57-6.94,13.9-8.86,20.84-4.29s8.86,13.9,4.29,20.84-13.9,8.86-20.84,4.29-8.86-13.9-4.29-20.84Z"/>
      <path class="cls-4" d="M754.07,1472.04c-6.94-4.57-8.86-13.9-4.29-20.84s13.9-8.86,20.84-4.29,8.86,13.9,4.29,20.84c-4.57,6.94-13.9,8.86-20.84,4.29h0Z"/>
      <path class="cls-3" d="M1254.32,987.38c4.58-6.94,13.9-8.86,20.84-4.29,6.94,4.57,8.86,13.9,4.29,20.84s-13.9,8.86-20.84,4.29c-6.94-4.57-8.86-13.9-4.29-20.84Z"/>
      <path class="cls-2" d="M1162.89,1126.19c4.57-6.94,13.9-8.86,20.84-4.29,6.94,4.57,8.86,13.9,4.29,20.84s-13.9,8.86-20.84,4.29c-6.94-4.57-8.86-13.9-4.29-20.84Z"/>
      <path class="cls-7" d="M984.58,1273.15c-6.94-4.57-8.86-13.9-4.29-20.84s13.9-8.86,20.84-4.29c6.94,4.56,8.86,13.89,4.29,20.83-4.56,6.94-13.89,8.86-20.83,4.29h-.01Z"/>
      <path class="cls-2" d="M888.87,1391.12c4.57-6.94,13.9-8.86,20.84-4.29s8.86,13.9,4.29,20.84-13.9,8.86-20.84,4.29-8.86-13.9-4.29-20.84Z"/>
      <path class="cls-2" d="M364.52,366.93c-6.94-4.56-8.86-13.89-4.29-20.83,4.57-6.94,13.9-8.86,20.84-4.29s8.86,13.9,4.29,20.84c-4.57,6.94-13.9,8.86-20.84,4.29h0Z"/>
      <path class="cls-2" d="M551.02,420.49c-6.94-4.57-8.86-13.89-4.29-20.83,4.57-6.94,13.9-8.86,20.84-4.29s8.86,13.9,4.29,20.84c-4.57,6.94-13.9,8.86-20.84,4.29h0Z"/>
      <path class="cls-1" d="M359.11,578.75c4.57-6.94,13.9-8.86,20.84-4.29s8.86,13.9,4.29,20.84c-4.57,6.94-13.9,8.86-20.84,4.29s-8.86-13.9-4.29-20.84Z"/>
      <path class="cls-4" d="M331.93,725.77c4.57-6.94,13.9-8.86,20.84-4.29s8.86,13.9,4.29,20.84-13.9,8.86-20.84,4.29-8.86-13.9-4.29-20.84Z"/>
      <path class="cls-5" d="M688.05,363.54c-6.94-4.57-8.86-13.9-4.29-20.84,4.57-6.94,13.9-8.86,20.84-4.29,6.94,4.58,8.86,13.9,4.29,20.84-4.56,6.94-13.89,8.86-20.83,4.29h-.01Z"/>
      <path class="cls-1" d="M590.17,597.18c4.57-6.94,13.9-8.86,20.84-4.29s8.86,13.9,4.29,20.84c-4.57,6.94-13.9,8.86-20.84,4.29s-8.86-13.9-4.29-20.84Z"/>
      <path class="cls-7" d="M490.65,701.43c-6.94-4.57-8.86-13.9-4.29-20.84,4.56-6.94,13.89-8.86,20.83-4.29,6.94,4.56,8.86,13.89,4.29,20.83-4.56,6.94-13.89,8.86-20.83,4.29h0Z"/>
      <path class="cls-1" d="M407.67,885.6c4.57-6.94,13.9-8.86,20.84-4.29s8.86,13.9,4.29,20.84-13.9,8.86-20.84,4.29-8.86-13.9-4.29-20.84Z"/>
      <path class="cls-7" d="M306.08,977.98c4.57-6.94,13.9-8.86,20.84-4.29s8.86,13.9,4.29,20.84-13.9,8.86-20.84,4.29-8.86-13.9-4.29-20.84Z"/>
      <path class="cls-4" d="M795.9,527.74c4.57-6.94,13.9-8.86,20.84-4.29s8.86,13.9,4.29,20.84c-4.57,6.94-13.9,8.86-20.84,4.29s-8.86-13.9-4.29-20.84Z"/>
      <path class="cls-7" d="M703.37,642.49c-6.94-4.57-8.86-13.9-4.29-20.84,4.56-6.94,13.89-8.86,20.83-4.29s8.86,13.9,4.29,20.84c-4.57,6.94-13.9,8.86-20.84,4.29h.01Z"/>
      <path class="cls-7" d="M611.93,781.3c-6.94-4.57-8.86-13.9-4.29-20.84,4.56-6.94,13.89-8.86,20.83-4.29s8.86,13.9,4.29,20.84-13.9,8.86-20.84,4.29h.01Z"/>
      <path class="cls-4" d="M516.2,899.27c4.57-6.94,13.9-8.86,20.84-4.29s8.86,13.9,4.29,20.84-13.9,8.86-20.84,4.29-8.86-13.9-4.29-20.84Z"/>
      <path class="cls-5" d="M478.34,1080.5c4.57-6.94,13.9-8.86,20.84-4.29s8.86,13.9,4.29,20.84-13.9,8.86-20.84,4.29-8.86-13.9-4.29-20.84Z"/>
      <path class="cls-5" d="M316.39,1212.46c-6.94-4.57-8.86-13.9-4.29-20.84s13.9-8.86,20.84-4.29,8.86,13.9,4.29,20.84c-4.57,6.94-13.9,8.86-20.84,4.29h0Z"/>
    </g>
    <g id="Links-4">
      <line class="cls-9" x1="620.2" y1="768.74" x2="602.74" y2="605.46"/>
      <line class="cls-9" x1="324.67" y1="1199.9" x2="577.79" y2="1138.03"/>
      <line class="cls-9" x1="1143.09" y1="979.39" x2="1080.69" y2="673.97"/>
      <line class="cls-9" x1="879.4" y1="877.16" x2="1143.09" y2="979.39"/>
      <line class="cls-9" x1="762.34" y1="1459.48" x2="901.43" y2="1399.39"/>
      <line class="cls-9" x1="697.08" y1="1153.96" x2="762.34" y2="1459.48"/>
      <line class="cls-9" x1="490.9" y1="1088.78" x2="624.03" y2="870.78"/>
      <line class="cls-9" x1="420.24" y1="893.88" x2="490.9" y2="1088.78"/>
      <line class="cls-9" x1="602.74" y1="605.46" x2="808.47" y2="536.02"/>
      <line class="cls-9" x1="743.3" y1="797.56" x2="711.63" y2="629.92"/>
      <line class="cls-9" x1="577.79" y1="1138.03" x2="758.17" y2="887.22"/>
      <line class="cls-9" x1="371.67" y1="587.03" x2="696.33" y2="350.98"/>
      <line class="cls-9" x1="923.56" y1="1082.79" x2="1175.45" y2="1134.47"/>
      <line class="cls-9" x1="834.37" y1="1226.38" x2="758.17" y2="887.22"/>
      <line class="cls-9" x1="923.56" y1="1082.79" x2="879.4" y2="877.16"/>
      <line class="cls-9" x1="1004.28" y1="887.96" x2="947.28" y2="627.45"/>
      <line class="cls-9" x1="420.24" y1="893.88" x2="144.08" y2="959.9"/>
      <line class="cls-9" x1="498.93" y1="688.86" x2="371.67" y2="587.03"/>
      <line class="cls-9" x1="307.55" y1="1440.47" x2="324.67" y2="1199.9"/>
      <line class="cls-9" x1="420.9" y1="1302.87" x2="697.08" y2="1153.96"/>
      <line class="cls-9" x1="320.37" y1="987.29" x2="559.3" y2="407.93"/>
      <line class="cls-9" x1="758.17" y1="887.22" x2="324.67" y2="1199.9"/>
      <line class="cls-9" x1="635.07" y1="1421.15" x2="947.28" y2="627.45"/>
      <line class="cls-9" x1="697.08" y1="1153.96" x2="1262" y2="714.56"/>
    </g>
  </g>
  <g id="Nodes_1" data-name="Nodes 1" class="cls-8">
    <g id="Links-5">
      <polygon class="cls-9" points="855.08 1258.5 888.6 1095.24 1073.37 1199.54 1178.36 1286.52 855.08 1258.5"/>
      <polygon class="cls-9" points="1124.07 1561.24 1003.86 1317.03 1200.08 1383.85 1269.15 1546.49 1124.07 1561.24"/>
      <polygon class="cls-9" points="1073.37 1199.54 1014.13 970.52 1029.68 836.09 1190.74 1023.73 1073.37 1199.54"/>
      <polygon class="cls-9" points="1200.08 1383.85 1178.36 1286.52 1211.02 1143.46 1339.3 1297.25 1200.08 1383.85"/>
      <polygon class="cls-9" points="1298.33 1711.46 1269.15 1546.49 1367.71 1419.2 1362.23 1543.26 1298.33 1711.46"/>
      <polygon class="cls-9" points="1211.02 1143.46 1190.74 1023.73 1258.62 947.88 1328.52 1082.39 1211.02 1143.46"/>
      <polygon class="cls-9" points="1367.71 1419.2 1339.3 1297.25 1398.42 1216.9 1525.91 1327.59 1367.71 1419.2"/>
      <polygon class="cls-9" points="1258.62 947.88 1226.87 829.04 1361.37 759.13 1336.28 862.67 1258.62 947.88"/>
      <polygon class="cls-9" points="1398.42 1216.9 1328.52 1082.39 1406.18 997.17 1411.48 1124.69 1398.42 1216.9"/>
      <polygon class="cls-9" points="1540.52 1509.35 1525.91 1327.59 1602.83 1281.5 1665.28 1478.48 1540.52 1509.35"/>
      <polygon class="cls-9" points="1406.18 997.17 1336.28 862.67 1594.15 829.52 1530.05 924.16 1406.18 997.17"/>
      <polygon class="cls-9" points="1602.83 1281.5 1411.48 1124.69 1484.19 1025.18 1669.86 1193.18 1602.83 1281.5"/>
      <polygon class="cls-9" points="1724.48 1629.9 1665.28 1478.48 1855.08 1361.32 1750.31 1507.48 1724.48 1629.9"/>
      <polygon class="cls-9" points="1594.15 829.52 1457.71 673.57 1570.61 547.23 1728.66 759.62 1594.15 829.52"/>
      <polygon class="cls-9" points="1484.19 1025.18 1530.05 924.16 1732.02 872.67 1718.22 980.72 1484.19 1025.18"/>
      <polygon class="cls-9" points="1855.08 1361.32 1669.86 1193.18 1788.13 1115.23 1941.74 1276.19 1855.08 1361.32"/>
      <polygon class="cls-9" points="1732.02 872.67 1728.66 759.62 1796.62 668.27 1866.52 802.77 1732.02 872.67"/>
      <polygon class="cls-9" points="1788.13 1115.23 1718.22 980.72 1885.81 1004.21 1955.71 1138.72 1788.13 1115.23"/>
    </g>
    <g id="Cercles-3">
      <path class="cls-5" d="M876.42,1101.56c-3.49-6.72-.87-15.01,5.85-18.5,6.73-3.49,15.01-.87,18.5,5.85,3.49,6.72,.87,15-5.85,18.5-6.73,3.49-15.01,.87-18.5-5.85Z"/>
      <path class="cls-5" d="M861.4,1270.67c-6.72,3.49-15.01,.87-18.5-5.85-3.49-6.72-.87-15.01,5.85-18.5s15.01-.87,18.5,5.85c3.5,6.72,.88,15.01-5.84,18.5h0Z"/>
      <path class="cls-5" d="M991.69,1323.36c-3.49-6.73-.87-15.01,5.85-18.5,6.72-3.5,15.01-.88,18.5,5.84,3.49,6.72,.87,15.01-5.85,18.5-6.73,3.5-15.01,.88-18.5-5.84Z"/>
      <path class="cls-5" d="M1020.46,982.7c-6.72,3.49-15.01,.87-18.5-5.85-3.49-6.72-.87-15.01,5.85-18.5,6.72-3.49,15.01-.87,18.5,5.85s.87,15.01-5.85,18.5h0Z"/>
      <path class="cls-5" d="M1079.7,1211.72c-6.72,3.49-15.01,.87-18.5-5.85-3.49-6.72-.87-15.01,5.85-18.5,6.72-3.49,15-.87,18.5,5.85,3.49,6.72,.87,15.01-5.85,18.5h0Z"/>
      <path class="cls-5" d="M1166.19,1292.85c-3.49-6.72-.87-15.01,5.85-18.5s15.01-.87,18.5,5.85,.87,15-5.85,18.5c-6.72,3.49-15.01,.87-18.5-5.85Z"/>
      <path class="cls-5" d="M1206.41,1396.03c-6.73,3.49-15.01,.87-18.5-5.85-3.49-6.73-.87-15.01,5.85-18.5,6.73-3.5,15.01-.88,18.5,5.84s.87,15.01-5.85,18.5h0Z"/>
      <path class="cls-5" d="M1036.01,848.27c-6.72,3.49-15.01,.87-18.5-5.85-3.5-6.72-.88-15.01,5.84-18.5,6.73-3.49,15.01-.87,18.5,5.85s.88,15.01-5.85,18.5h.01Z"/>
      <path class="cls-5" d="M1197.08,1035.9c-6.72,3.49-15.01,.87-18.5-5.85-3.5-6.72-.88-15.01,5.84-18.5,6.72-3.49,15.01-.87,18.5,5.85s.87,15.01-5.85,18.5h.01Z"/>
      <path class="cls-5" d="M1217.33,1155.64c-6.72,3.49-15.01,.87-18.5-5.85s-.87-15.01,5.85-18.5c6.73-3.49,15.01-.87,18.5,5.85,3.5,6.72,.88,15.01-5.84,18.5h-.01Z"/>
      <path class="cls-5" d="M1345.62,1309.42c-6.72,3.49-15.01,.87-18.5-5.85s-.87-15.01,5.85-18.5c6.73-3.49,15.01-.87,18.5,5.85,3.5,6.72,.88,15.01-5.84,18.5h-.01Z"/>
      <path class="cls-5" d="M1374.03,1431.36c-6.73,3.5-15.01,.88-18.5-5.84s-.87-15.01,5.85-18.5c6.73-3.49,15.01-.87,18.5,5.85,3.5,6.73,.88,15.01-5.84,18.5h-.01Z"/>
      <path class="cls-5" d="M1233.19,841.21c-6.73,3.49-15.01,.87-18.5-5.85s-.87-15.01,5.85-18.5c6.72-3.49,15.01-.87,18.5,5.85,3.5,6.72,.88,15.01-5.84,18.5h-.01Z"/>
      <path class="cls-5" d="M1264.93,960.06c-6.72,3.49-15.01,.87-18.5-5.85s-.87-15,5.85-18.5c6.73-3.49,15.01-.87,18.5,5.85,3.5,6.72,.88,15-5.84,18.5h-.01Z"/>
      <path class="cls-5" d="M1316.34,1088.72c-3.49-6.72-.87-15.01,5.85-18.5,6.73-3.5,15.01-.88,18.5,5.84,3.49,6.73,.87,15.01-5.85,18.5-6.72,3.5-15.01,.88-18.5-5.84Z"/>
      <path class="cls-5" d="M1386.25,1223.23c-3.5-6.72-.88-15.01,5.84-18.5,6.72-3.5,15.01-.88,18.5,5.84,3.5,6.72,.88,15.01-5.84,18.5-6.73,3.5-15.01,.88-18.5-5.84Z"/>
      <path class="cls-5" d="M1532.25,1339.76c-6.73,3.49-15.01,.87-18.5-5.85-3.5-6.73-.88-15,5.84-18.5,6.72-3.49,15-.87,18.5,5.85,3.49,6.72,.87,15.01-5.85,18.5h.01Z"/>
      <path class="cls-5" d="M1349.2,765.45c-3.49-6.72-.87-15,5.85-18.5,6.72-3.49,15.01-.87,18.5,5.85s.87,15.01-5.85,18.5c-6.72,3.49-15.01,.87-18.5-5.85Z"/>
      <path class="cls-5" d="M1342.61,874.84c-6.73,3.49-15.01,.87-18.5-5.85-3.5-6.72-.88-15.01,5.84-18.5,6.72-3.49,15.01-.87,18.5,5.85s.87,15-5.85,18.5h.01Z"/>
      <path class="cls-5" d="M1412.52,1009.34c-6.72,3.49-15.01,.87-18.5-5.85-3.5-6.72-.88-15.01,5.84-18.5,6.72-3.49,15.01-.87,18.5,5.85s.87,15-5.85,18.5h.01Z"/>
      <path class="cls-5" d="M1417.82,1136.87c-6.73,3.49-15.01,.87-18.5-5.85-3.5-6.72-.88-15,5.84-18.5,6.72-3.49,15.01-.87,18.5,5.85s.87,15.01-5.85,18.5h.01Z"/>
      <path class="cls-5" d="M1609.15,1293.68c-6.72,3.49-15.01,.87-18.5-5.85s-.87-15.01,5.85-18.5c6.72-3.5,15.01-.88,18.5,5.84,3.5,6.72,.88,15.01-5.84,18.5h-.01Z"/>
      <path class="cls-5" d="M1464.03,685.75c-6.73,3.49-15.01,.87-18.5-5.85-3.49-6.73-.87-15.01,5.85-18.5,6.73-3.49,15.01-.87,18.5,5.85,3.5,6.72,.88,15-5.84,18.5h-.01Z"/>
      <path class="cls-5" d="M1600.47,841.69c-6.72,3.49-15.01,.87-18.5-5.85s-.87-15.01,5.85-18.5c6.72-3.49,15.01-.87,18.5,5.85,3.5,6.72,.88,15.01-5.84,18.5h-.01Z"/>
      <path class="cls-5" d="M1536.37,936.33c-6.72,3.49-15.01,.87-18.5-5.85s-.87-15.01,5.85-18.5c6.73-3.49,15.01-.87,18.5,5.85,3.5,6.72,.88,15.01-5.84,18.5h-.01Z"/>
      <path class="cls-5" d="M1490.52,1037.35c-6.73,3.5-15.01,.88-18.5-5.84-3.5-6.72-.88-15.01,5.84-18.5,6.72-3.5,15.01-.88,18.5,5.84s.87,15.01-5.85,18.5h.01Z"/>
      <path class="cls-5" d="M1657.69,1199.51c-3.49-6.73-.87-15.01,5.85-18.5,6.72-3.5,15.01-.88,18.5,5.84,3.49,6.73,.87,15.01-5.85,18.5-6.72,3.5-15,.88-18.5-5.84Z"/>
      <path class="cls-5" d="M1842.91,1367.65c-3.49-6.72-.87-15.01,5.85-18.5,6.72-3.5,15-.88,18.5,5.84,3.49,6.72,.87,15.01-5.85,18.5-6.72,3.5-15.01,.88-18.5-5.84Z"/>
      <path class="cls-5" d="M1558.43,553.55c-3.49-6.72-.87-15,5.85-18.5,6.72-3.49,15.01-.87,18.5,5.85,3.49,6.73,.87,15.01-5.85,18.5s-15.01,.87-18.5-5.85Z"/>
      <path class="cls-5" d="M1734.98,771.78c-6.72,3.5-15.01,.88-18.5-5.84s-.87-15.01,5.85-18.5c6.72-3.49,15.01-.87,18.5,5.85s.87,15.01-5.85,18.5h0Z"/>
      <path class="cls-5" d="M1738.36,884.85c-6.72,3.49-15.01,.87-18.5-5.85-3.5-6.72-.88-15.01,5.84-18.5,6.73-3.49,15.01-.87,18.5,5.85s.87,15-5.85,18.5h.01Z"/>
      <path class="cls-5" d="M1724.54,992.89c-6.72,3.49-15.01,.87-18.5-5.85s-.87-15.01,5.85-18.5c6.73-3.49,15.01-.87,18.5,5.85,3.5,6.72,.88,15.01-5.84,18.5h-.01Z"/>
      <path class="cls-5" d="M1794.45,1127.4c-6.73,3.49-15.01,.87-18.5-5.85s-.87-15.01,5.85-18.5c6.72-3.49,15.01-.88,18.5,5.85,3.5,6.72,.88,15.01-5.84,18.5h-.01Z"/>
      <path class="cls-5" d="M1802.96,680.44c-6.72,3.49-15.01,.87-18.5-5.85-3.5-6.72-.88-15.01,5.84-18.5s15-.87,18.5,5.85c3.49,6.72,.87,15.01-5.85,18.5h.01Z"/>
      <path class="cls-5" d="M1872.86,814.94c-6.73,3.49-15.01,.87-18.5-5.85-3.5-6.72-.88-15.01,5.84-18.5,6.72-3.49,15.01-.87,18.5,5.85s.87,15.01-5.85,18.5h.01Z"/>
      <path class="cls-5" d="M1873.63,1010.53c-3.49-6.72-.87-15.01,5.85-18.5,6.72-3.49,15.01-.87,18.5,5.85s.87,15.01-5.85,18.5c-6.72,3.49-15.01,.87-18.5-5.85Z"/>
    </g>
    <g id="Links-6">
      <line class="cls-9" x1="1200.08" y1="1383.85" x2="1124.07" y2="1561.24"/>
      <line class="cls-9" x1="1328.52" y1="1082.39" x2="1190.74" y2="1023.73"/>
      <line class="cls-9" x1="1540.52" y1="1509.35" x2="1603.74" y2="1280.29"/>
      <line class="cls-9" x1="1728.66" y1="759.62" x2="1457.71" y2="673.57"/>
      <line class="cls-9" x1="1530.05" y1="924.16" x2="1728.66" y2="759.62"/>
      <line class="cls-9" x1="1941.74" y1="1276.19" x2="1955.71" y2="1138.72"/>
      <line class="cls-9" x1="1669.45" y1="1192.38" x2="1941.74" y2="1276.19"/>
      <line class="cls-9" x1="1525.91" y1="1327.59" x2="1411.48" y2="1124.69"/>
      <line class="cls-9" x1="1339.31" y1="1297.25" x2="1525.91" y2="1327.59"/>
      <line class="cls-9" x1="1190.74" y1="1023.73" x2="1226.87" y2="829.04"/>
      <line class="cls-9" x1="1406.18" y1="997.17" x2="1258.62" y2="947.88"/>
      <line class="cls-9" x1="1603.74" y1="1280.29" x2="1484.19" y2="1025.18"/>
      <line class="cls-9" x1="1073.37" y1="1199.54" x2="1029.68" y2="836.09"/>
      <line class="cls-9" x1="1713.42" y1="980.39" x2="1866.52" y2="802.77"/>
      <line class="cls-9" x1="1788.13" y1="1115.23" x2="1484.19" y2="1025.18"/>
      <line class="cls-9" x1="1713.42" y1="980.39" x2="1530.05" y2="924.16"/>
      <line class="cls-9" x1="1594.15" y1="829.52" x2="1361.37" y2="759.13"/>
      <line class="cls-9" x1="1339.31" y1="1297.25" x2="1269.15" y2="1546.49"/>
      <line class="cls-9" x1="1211.02" y1="1143.46" x2="1073.37" y2="1199.54"/>
      <line class="cls-9" x1="1724.48" y1="1629.9" x2="1540.52" y2="1509.35"/>
      <line class="cls-9" x1="1665.28" y1="1478.49" x2="1669.45" y2="1192.38"/>
      <line class="cls-9" x1="2011.64" y1="1410.69" x2="1851.58" y2="1366.2"/>
      <line class="cls-9" x1="1369.3" y1="1418.28" x2="1014.13" y2="970.52"/>
      <line class="cls-9" x1="1484.19" y1="1025.18" x2="1540.52" y2="1509.35"/>
      <line class="cls-9" x1="1854.66" y1="1360.51" x2="1361.37" y2="759.13"/>
      <line class="cls-9" x1="1669.45" y1="1192.38" x2="1570.61" y2="547.23"/>
      <line class="cls-9" x1="852.7" y1="1253.93" x2="1124.07" y2="1561.24"/>
    </g>
  </g>
  <g id="Links-7">
    <line class="cls-9" x1="1570.61" y1="547.23" x2="808.47" y2="536.02"/>
    <line class="cls-9" x1="696.33" y1="350.98" x2="1594.15" y2="829.52"/>
    <line class="cls-9" x1="324.67" y1="1199.9" x2="947.28" y2="627.45"/>
    <line class="cls-9" x1="1530.05" y1="924.16" x2="696.33" y2="350.98"/>
    <line class="cls-9" x1="602.74" y1="605.46" x2="371.67" y2="354.73"/>
  </g>
</svg>